<?xml version="1.0" standalone="no"?>
<!DOCTYPE svg PUBLIC "-//W3C//DTD SVG 20010904//EN"
 "http://www.w3.org/TR/2001/REC-SVG-20010904/DTD/svg10.dtd">
<svg version="1.0" xmlns="http://www.w3.org/2000/svg"
 width="1200.000000pt" height="1200.000000pt" viewBox="0 0 1200.000000 1200.000000"
 preserveAspectRatio="xMidYMid meet">
<metadata>
Created by potrace 1.14, written by Peter Selinger 2001-2017
</metadata>
<g transform="translate(0.000000,1200.000000) scale(0.100000,-0.100000)"
fill="#000000" stroke="none">
<path d="M1408 9930 c-126 -198 -240 -479 -284 -695 -52 -257 -60 -448 -29
-730 6 -61 17 -122 37 -205 11 -47 22 -95 24 -108 14 -70 108 -322 158 -421
20 -39 25 -67 30 -181 6 -150 8 -161 31 -275 34 -162 109 -342 203 -486 56
-86 62 -93 153 -198 211 -241 551 -473 939 -641 41 -18 89 -38 105 -46 17 -7
98 -38 180 -69 83 -31 164 -63 180 -70 17 -7 66 -27 110 -45 182 -73 600 -280
735 -364 19 -12 46 -27 60 -34 14 -7 90 -57 170 -110 110 -74 145 -103 143
-117 -1 -11 -11 -56 -22 -100 -24 -98 -26 -276 -4 -413 8 -52 13 -96 11 -98
-3 -2 -38 9 -79 25 -157 60 -624 209 -711 226 -9 2 -50 13 -90 24 -61 17 -258
64 -321 76 -10 3 -26 6 -35 9 -9 3 -37 8 -62 11 -24 4 -47 8 -50 10 -3 2 -25
6 -50 10 -25 4 -47 8 -50 10 -3 1 -27 6 -55 9 -27 4 -57 9 -65 11 -8 2 -40 6
-71 10 -31 3 -66 7 -77 10 -12 2 -52 7 -89 10 -37 4 -79 8 -93 11 -40 6 -297
18 -393 17 -288 -1 -627 -45 -882 -114 -38 -11 -80 -21 -92 -24 -107 -25 -388
-133 -563 -216 -124 -59 -379 -207 -433 -251 l-28 -23 303 0 c262 0 562 -10
578 -20 3 -1 48 -6 100 -10 52 -3 97 -8 100 -10 3 -1 32 -6 65 -9 33 -3 69 -8
80 -10 11 -2 43 -7 70 -11 95 -13 351 -66 485 -100 404 -102 825 -274 1154
-472 62 -37 233 -150 251 -165 5 -5 35 -27 65 -49 161 -118 353 -301 478 -454
38 -46 38 -52 13 -109 -69 -149 -91 -246 -87 -366 2 -47 6 -96 9 -109 31 -124
85 -213 186 -309 72 -69 123 -104 229 -158 l86 -44 427 0 c333 0 428 3 431 13
2 6 3 138 3 293 l-1 280 165 68 c91 38 175 72 186 77 11 4 88 31 170 59 129
43 150 53 147 69 -2 11 -28 93 -57 182 -30 90 -53 164 -51 166 2 3 30 -9 63
-25 201 -102 449 -175 678 -199 90 -10 371 -10 455 0 138 15 281 47 402 87
l86 29 104 -35 c99 -34 336 -101 388 -111 14 -2 41 -8 60 -13 42 -11 233 -50
273 -55 16 -2 40 -6 55 -9 15 -3 47 -8 72 -11 25 -3 52 -8 60 -10 14 -4 92
-14 150 -20 14 -1 48 -5 75 -9 28 -3 79 -8 115 -11 36 -3 85 -8 110 -10 250
-26 952 -25 1180 0 35 4 85 9 215 20 39 3 77 8 85 10 8 2 40 7 70 10 30 3 96
13 145 21 50 8 104 17 120 20 280 44 699 162 945 266 159 67 410 201 398 213
-2 2 -48 6 -103 10 -55 4 -111 8 -125 10 -14 2 -47 6 -75 9 -51 6 -266 32
-340 42 -22 3 -62 9 -90 14 -27 5 -66 12 -85 14 -19 3 -82 15 -140 26 -58 12
-116 23 -130 26 -67 13 -342 88 -423 115 -468 157 -792 364 -1038 665 -52 64
-219 300 -219 309 0 12 -257 404 -300 458 -80 101 -169 205 -211 249 l-54 55
-1 74 c-2 165 -41 378 -89 494 -7 17 -16 41 -20 55 -16 53 -110 230 -173 325
-36 55 -68 102 -71 105 -3 3 -24 28 -45 55 -61 77 -271 282 -366 358 -366 291
-695 463 -1020 532 -8 2 -55 12 -105 24 -49 11 -157 31 -240 45 -163 27 -173
29 -320 51 -109 17 -119 18 -245 41 -73 14 -203 44 -315 74 -202 53 -481 196
-636 326 -51 42 -217 212 -247 253 -15 20 -29 38 -32 41 -15 15 -118 171 -155
236 l-42 75 -49 -37 c-43 -32 -92 -80 -131 -128 -54 -65 -125 -227 -138 -317
-4 -24 -9 -47 -12 -51 -2 -5 -5 -49 -5 -98 -1 -51 -6 -90 -11 -90 -17 0 -195
79 -275 122 -137 73 -366 222 -418 272 -6 6 -34 29 -62 51 -78 61 -319 309
-398 410 -143 181 -249 345 -338 523 l-47 93 -43 -30 c-64 -45 -149 -143 -189
-219 -40 -78 -82 -191 -91 -246 -4 -21 -8 -42 -11 -45 -4 -8 -16 -108 -21
-171 -1 -19 -2 -39 -3 -44 -2 -14 -83 78 -166 186 -141 185 -289 462 -415 778
-49 121 -165 468 -175 523 -4 20 -10 37 -14 37 -3 0 -32 -41 -63 -90z"/>
</g>
</svg>
